<svg xmlns="http://www.w3.org/2000/svg" viewBox="0 0 183.25 179.89"><defs><style>.cls-1{fill:#fff;}.cls-2{fill:#009e51;}.cls-3{fill:#f39309;}</style></defs><g id="Layer_2" data-name="Layer 2"><g id="Layer_1-2" data-name="Layer 1"><path class="cls-1" d="M98.21,176.34a2,2,0,1,1-2.12-1.93A2,2,0,0,1,98.21,176.34Z"/><path class="cls-1" d="M74.76,170.24c2,.41,3.35,1.73,3,3.62l-2.4-.5a1.09,1.09,0,0,0-.93-1.3c-.66-.13-1.15.11-1.27.65-.35,1.72,4.48,1.75,3.77,5-.36,1.76-2,2.43-4,2s-3.17-1.7-2.9-3.49l2.44.5a1,1,0,0,0,.88,1.19.84.84,0,0,0,1.12-.65c.34-1.61-4.4-1.83-3.76-4.94C71.11,170.83,72.59,169.79,74.76,170.24Z"/><path class="cls-1" d="M63.65,177.19c-2.21-.7-2.91-2.32-2.42-3.89a2.76,2.76,0,0,1,2.84-2l-.95-4.24,2.48.79.8,4,.53.17L68,168.63l2.2.7-2.86,9Zm.71-1.79,1.36.44.71-2.24-1.36-.43a1.17,1.17,0,1,0-.71,2.23Z"/><path class="cls-1" d="M58.8,175.56l-6.73-2.9.73-1.7,2.3,1,3-7,2.12.91-3,7,2.31,1Z"/><path class="cls-1" d="M49.62,160.42c1.75,1,2.6,2.72,1.68,4.41l-2.11-1.26a1.09,1.09,0,0,0-.46-1.53c-.58-.34-1.13-.27-1.41.2-.9,1.51,3.66,3.12,1.92,6-.92,1.54-2.7,1.65-4.4.63s-2.45-2.65-1.61-4.25l2.15,1.28a1,1,0,0,0,.44,1.4.84.84,0,0,0,1.28-.24c.84-1.42-3.57-3.18-2-5.9C46,159.79,47.71,159.28,49.62,160.42Z"/><path class="cls-1" d="M40.58,158.58l1.15.85,2-2.74,1.86,1.37L40,165.69l-3-2.22c-1.86-1.38-2-3.12-1-4.52S38.63,157.15,40.58,158.58Zm-.95,1.58a1.19,1.19,0,1,0-1.41,1.91l1,.75,1.41-1.91Z"/><path class="cls-1" d="M35.83,150.09a4.85,4.85,0,1,1-6.86.27A4.77,4.77,0,0,1,35.83,150.09Zm-1.43,1.54a2.48,2.48,0,0,0-3.7.32,2.52,2.52,0,1,0,3.67,3.41A2.48,2.48,0,0,0,34.4,151.63Z"/><path class="cls-1" d="M21.83,149.3c-1.51-1.77-1.25-3.52,0-4.59a2.77,2.77,0,0,1,3.45-.19l1.42-4.1,1.7,2L27,146.22l.36.42L30,144.31l1.51,1.76-7.2,6.17Zm1.54-1.15.93,1.09,1.79-1.53-.93-1.09a1.11,1.11,0,0,0-1.73-.19A1.1,1.1,0,0,0,23.37,148.15Z"/><path class="cls-1" d="M18.57,145.36l-4.21-6,1.52-1.06,1.44,2.06L23.57,136l1.32,1.89-6.25,4.37,1.44,2.06Z"/><path class="cls-1" d="M20,130.08c1,1.78.91,3.66-.73,4.66L18.1,132.6a1.08,1.08,0,0,0,.36-1.55c-.33-.59-.83-.8-1.31-.53-1.53.87,1.62,4.53-1.32,6.16-1.57.88-3.16.09-4.13-1.64s-.81-3.51.72-4.48l1.23,2.17a1,1,0,0,0-.32,1.44.84.84,0,0,0,1.23.42c1.43-.81-1.52-4.53,1.25-6.08C17.19,127.72,19,128.15,20,130.08Z"/><path class="cls-1" d="M7.61,126.94l-1-2.56,5.23-4.78-7.07-.18-1-2.54,8.89-3.3.8,2.16-5.33,2H14.3l.65,1.75-4.6,4,5.34-2,.81,2.16Z"/><path class="cls-1" d="M9.5,106.87l.79,3.45,1.76.18.53,2.35-10-1.24L2,109l8.48-5.45.54,2.38Zm-4.72,2.89,3.64.36-.52-2.28Z"/><path class="cls-1" d="M.08,95.36l9.42-1,.24,2.29-5.41,4.45,5.81-.6.24,2.29L1,103.8l-.24-2.3,5.44-4.45-5.84.61Z"/><path class="cls-1" d="M7.84,87.07l0,3.53,1.67.59,0,2.42L0,90.06l0-2.67,9.52-3.31,0,2.44Zm-5.27,1.7L6,90l0-2.34Z"/><path class="cls-1" d="M4.37,73.67,4,76.2a2,2,0,0,0-1.21,1.72,2.44,2.44,0,0,0,2.35,2.81,2.5,2.5,0,0,0,3.11-2.27A2.28,2.28,0,0,0,6.93,76l-.39,2.9-1.68-.22.66-5,2.13.28a4.83,4.83,0,0,1-2.78,9.11A4.62,4.62,0,0,1,.71,77.64,4.21,4.21,0,0,1,4.37,73.67Z"/><path class="cls-1" d="M5.06,65.93l-.82,3.4,1.86.45.73-3,1.73.42-.72,3,2,.49.82-3.4,1.79.43-1.36,5.64L1.9,71.14,3.27,65.5Z"/><path class="cls-1" d="M3.81,63.22l.95-2.56,7.07-.22L6.59,55.7l.94-2.55,8.89,3.29-.8,2.17-5.33-2,4.6,4-.65,1.74-6.08,0,5.34,2-.8,2.17Z"/><path class="cls-1" d="M13,46.62l-1.59,3.12,1.71.87,1.4-2.76,1.59.81-1.4,2.76,1.85.94,1.59-3.12,1.64.84-2.63,5.18L8.66,51l2.64-5.17Z"/><path class="cls-1" d="M17,36.69l8,5.15-1.25,1.93-7,.07L21.58,47,20.32,49l-8-5.15,1.26-1.94,7,0-4.93-3.19Z"/><path class="cls-1" d="M18.14,35.14l4.61-5.69,1.44,1.16-1.58,2,5.92,4.81-1.45,1.79-5.93-4.8-1.58,2Z"/><path class="cls-1" d="M33,27.67l-1,1,2.35,2.47-1.68,1.59-6.52-6.87,2.71-2.58c1.68-1.6,3.43-1.45,4.63-.18S34.76,26,33,27.67Zm-1.39-1.21a1.12,1.12,0,0,0,.13-1.77,1.11,1.11,0,0,0-1.76,0l-.91.87,1.63,1.72Z"/><path class="cls-1" d="M38,15.65l2-1.48L43,23.75,40.7,25.5,32.28,20l1.95-1.49,6.21,4.27Z"/><path class="cls-1" d="M41,13.55l6.26-3.81,1,1.58L46,12.63l4,6.51-2,1.2-4-6.52-2.14,1.31Z"/><path class="cls-1" d="M54.06,17a1.26,1.26,0,1,1,.65-1.73A1.27,1.27,0,0,1,54.06,17Z"/><path class="cls-1" d="M57.45,5l2.86,7.14L63.12,11l.66,1.65-5,2L55.31,5.82Z"/><path class="cls-1" d="M61.38,3.4l7-2.13L68.93,3l-2.4.73,2.22,7.3-2.21.67-2.22-7.3-2.4.74Z"/><path class="cls-1" d="M79.53,3.84c.52,2.76-1,5-4,5.59l-3.49.67L70.26.79,73.75.12C76.72-.45,79,1.07,79.53,3.84ZM75,7.5a2.52,2.52,0,0,0,2.21-3.22A2.54,2.54,0,0,0,74,2.08l-1.08.21,1,5.41Z"/><path class="cls-1" d="M82.61,8.46a1.26,1.26,0,1,1,1.22-1.39A1.27,1.27,0,0,1,82.61,8.46Z"/><path class="cls-1" d="M94.25,3.37a2,2,0,1,1,4.06.22,2,2,0,0,1-4.06-.22Z"/><path class="cls-1" d="M114.29,11.13c-2-.56-3.21-2-2.75-3.83L113.9,8a1.09,1.09,0,0,0,.83,1.37c.65.18,1.16,0,1.31-.56.49-1.69-4.33-2.08-3.38-5.3.49-1.73,2.18-2.29,4.09-1.74s3,1.94,2.64,3.7L117,4.76a1,1,0,0,0-.78-1.25.84.84,0,0,0-1.17.56c-.45,1.58,4.26,2.16,3.39,5.21C118,10.81,116.42,11.74,114.29,11.13Z"/><path class="cls-1" d="M124.82,13l-3.27-1.34L120.39,13l-2.24-.92,6.76-7.48,2.48,1L127,15.71l-2.26-.93Zm.35-5.53-2.38,2.77,2.16.89Z"/><path class="cls-1" d="M136.13,9.81a4.4,4.4,0,0,1,2.32,5.08l-2.22-1.23a2.07,2.07,0,0,0-1.15-2,2.42,2.42,0,0,0-3.41,1.22,2.42,2.42,0,0,0,.76,3.54,2.09,2.09,0,0,0,2.33-.1L137,17.54a4.39,4.39,0,0,1-5.54.7,4.58,4.58,0,0,1-1.82-6.52A4.6,4.6,0,0,1,136.13,9.81Z"/><path class="cls-1" d="M143.43,21.31l-2.91-2.1-2.28,3.16L136.37,21l5.55-7.68,1.87,1.35-2.18,3,2.91,2.1,2.18-3,1.87,1.35L143,25.83l-1.87-1.36Z"/><path class="cls-1" d="M150.24,19.62l1.76,1.5-6.17,7.2-1.75-1.5Z"/><path class="cls-1" d="M159.71,28.6,153,35.27l-1.62-1.65,1.44-6.86-4.16,4.12L147,29.23l6.74-6.66,1.63,1.64-1.46,6.88L158.08,27Z"/><path class="cls-1" d="M163,32.43l4.38,5.89-1.48,1.11-1.5-2L158.22,42l-1.38-1.85L163,35.56l-1.5-2Z"/><path class="cls-1" d="M169.75,45.77l-1.82-3-1.64,1,1.62,2.63-1.53.93-1.61-2.64L163,45.8l1.82,3-1.57,1-3-5,8.08-4.94,3,5Z"/><path class="cls-1" d="M176.11,54.4l-8.56,4.07-1-2.08,3.61-6L164.9,52.9l-1-2.08,8.56-4.08,1,2.08-3.64,6,5.3-2.53Z"/><path class="cls-1" d="M175.28,66.32c-2.66.9-5.11-.33-6.08-3.19l-1.13-3.36,9-3,1.14,3.36C179.14,63,178,65.42,175.28,66.32Zm-4.23-4a2.75,2.75,0,1,0,5.21-1.76l-.35-1-5.21,1.76Z"/><path class="cls-1" d="M180.3,66.81l.48,2.26-5.55,1.19a1.53,1.53,0,0,0-1.38,2,1.56,1.56,0,0,0,2.08,1.27l5.54-1.19.49,2.26-5.53,1.18a3.72,3.72,0,0,1-4.67-3.11,3.63,3.63,0,0,1,3-4.65Z"/><path class="cls-1" d="M182.52,79.13l-7.64.89.35,3-1.77.21-.62-5.29,9.41-1.1Z"/><path class="cls-1" d="M177.81,86.32l-4.19.1-.05-2.31,9.47-.23.06,2.3-4.16.11,4.24,3,.07,2.71-4.74-3.55-4.73,3.93-.08-2.83Z"/><path class="cls-1" d="M174.87,99.29l.32-3.53-1.62-.71.22-2.41,9.13,4.27-.24,2.66-9.75,2.57.22-2.44ZM180.26,98l-3.35-1.47-.21,2.32Z"/><path class="cls-1" d="M181.27,108.59c-.47,2.28-2,3.15-3.62,2.82a2.78,2.78,0,0,1-2.27-2.61l-4.11,1.39.52-2.55,3.9-1.22.11-.54-3.51-.71.46-2.26,9.29,1.88Zm-1.85-.51.28-1.4-2.3-.47-.29,1.4a1.18,1.18,0,1,0,2.31.47Z"/><path class="cls-1" d="M179.13,117.06l-2,5.83-1.75-.6,1.26-3.65-1.89-.66-.94,2.74-1.7-.59.94-2.73-3.62-1.25.75-2.18Z"/><path class="cls-1" d="M165.88,124.71a4.85,4.85,0,1,1,8.78,4.13,4.85,4.85,0,0,1-8.78-4.13Zm1.9.9a2.77,2.77,0,1,0,3.56-1.11A2.48,2.48,0,0,0,167.78,125.61Z"/><path class="cls-1" d="M171.42,135l-1.22,2-4.81-3a1.54,1.54,0,0,0-2.37.46,1.56,1.56,0,0,0,.61,2.36l4.82,3-1.23,2-4.8-3a3.72,3.72,0,0,1-1.19-5.48,3.64,3.64,0,0,1,5.4-1.25Z"/><path class="cls-1" d="M160.54,150.37l-7.41-5.91,1.44-1.81,7,.63L157,139.64l1.44-1.81,7.41,5.91-1.44,1.81-7-.65,4.59,3.67Z"/><path class="cls-1" d="M149.46,154.85c-2-2-2-4.74.2-6.86l2.53-2.5,6.67,6.74-2.53,2.5C154.18,156.86,151.45,156.86,149.46,154.85Zm1.71-5.54a2.75,2.75,0,1,0,3.88,3.91l.78-.77L152,148.54Z"/><path class="cls-1" d="M141.75,157.09l2.78-2.18-.58-1.67,1.9-1.49,3.14,9.59-2.1,1.64-8.55-5.35,1.93-1.51Zm4.63,3-1.23-3.45-1.84,1.44Z"/><path class="cls-1" d="M143.08,165.79l-6.23,3.88-1-1.57,2.13-1.33-4-6.48,2-1.22,4,6.48,2.13-1.33Z"/><path class="cls-1" d="M135.37,170.42l-2,1.08-4.43-8.38,2-1.08Z"/><path class="cls-1" d="M123.48,165.53a4.86,4.86,0,1,1-2.58,6.37A4.78,4.78,0,0,1,123.48,165.53Zm.82,1.94a2.77,2.77,0,1,0,3.38,1.56A2.47,2.47,0,0,0,124.3,167.47Z"/><path class="cls-1" d="M112.5,179.23l-2.58-9.13,2.22-.62,5.31,4.57-1.59-5.62,2.22-.63,2.58,9.12-2.22.63-5.32-4.6,1.6,5.65Z"/><g id="Group_1989" data-name="Group 1989"><path id="Path_328" data-name="Path 328" class="cls-1" d="M123.41,40.14l7.2-8.21h0l1-1.07c1.73-1.87,4.23-4.18,4.23-4.18a1.74,1.74,0,0,0-.82-1.57,1.19,1.19,0,0,0-1.47,0s-2.43,1.46-5.27,3.09a15.91,15.91,0,0,0-4.4,3.64s-16.1,20-16.63,20.52-.67.82-1.3,1a17.59,17.59,0,0,0-3.69.32,4.55,4.55,0,0,0-3,3c-.2.54-.74.82-1.57,1s-1.09,1-1.66,1.33a2.51,2.51,0,0,0-1.08,1.13c-.23.55-3.46,2.21-5,2.54s-3,1.84-3.71,1.74-.66,0-1.08.35-.5.25-1.14-.3-1.39-.09-1.72-.09-.77.38-1.06-.15S77.5,56.37,76.87,55a1.38,1.38,0,0,0-1.75-.85l-.1,0s-2.92-6.72-9.42-3.57-3.2,10-3.2,10A1.41,1.41,0,0,0,62,62.6s2,4.94,2.69,6.3-.53,1.58-1,2.1.06,1.35.1,2-1.06,1-1.32,4.32,2,5.72,2.82,6.66A8.64,8.64,0,0,1,67,87c.42,1.31,1.65,2.51,2.16,3.67a31.49,31.49,0,0,0,2.51,3.86,16.14,16.14,0,0,1,1.48,3,8,8,0,0,1,1.36,3c.52,2.09-.63,4.34-.91,5.36s.06,2.46,0,3.37a3.66,3.66,0,0,0,.29,2.21,2.9,2.9,0,0,1,.43,1.82,5.71,5.71,0,0,0,.15,1.65,2.91,2.91,0,0,0,.86,1.84c.43.56-.32,1.93-.49,2.63s.43,1.52.66,2.59,1.5,4.08,2,5.39-.52,1-.52,1c-1.58-.69-2.82,0-2.56,3.42s2.72,6.45,3,6.93,0,.21.17.89.49.17.51,1.16a2.17,2.17,0,0,0,1,1.63c.22.21.46.47.49,1.46a75.47,75.47,0,0,0,3,11.94c1,2.29,1.78,1.5,2.17,1.55s-.2,3.24-.2,3.24c-.08,4.69,4.58,3.33,5.72,3.39s2.5-1,3.53-.83,3,1.68,5,1.27a2.55,2.55,0,0,0,2.23-2.27,2.33,2.33,0,0,1,.75-1.3,4.41,4.41,0,0,0,.87-2.66c0-1,.52-1.16.52-1.16a2.41,2.41,0,0,0,2.69-2.13,1.94,1.94,0,0,0,0-.24,25.07,25.07,0,0,0-.66-5.45c-.35-.95,0-2.1.16-3.46s1-6.47,1.12-7.56a10.52,10.52,0,0,0-.29-3.66c-.25-.47-.13-.32,0-.86s.4-.86.09-1.42a3.15,3.15,0,0,1-.16-1.92,6,6,0,0,0,.08-1.89c-.15-1.32,0-1.32,0-1.32,1.3-.72.66-2.57.66-2.57a1.64,1.64,0,0,0,.51-1.42c-.07-.54-.92-.94-.92-.94a3.56,3.56,0,0,0,.54-2.71c-.14-.85-.55-1.88-.78-2.72a10.94,10.94,0,0,1-.41-2c0-.48-.53-.71-.74-1s-.21-.11-.58-.52-.79-.26-.83-.77-.2-.71,0-1-.07-.54-.24-1.07a7.91,7.91,0,0,1,.06-1.54c0-.36-.25-.47-.42-1.22s-.49-.71-.66-1.28-.55-.52-1.17-1.32-.29-.9-.81-2.9a6.5,6.5,0,0,0-1.54-3.06A16.7,16.7,0,0,0,96.6,96.6c-.61-.52-.76-.43-1.14-1.17s-1.56-5.55-1.56-5.55c0-.24,0-.48-.05-.72a3.62,3.62,0,0,0-.39-1.58c-.35-.81.16-.76.21-1.18s0-.63,0-1.2.11-.54-.22-.81a.93.93,0,0,1-.2-.8c0-4.71-1.7-9.09-1.17-9.31a22,22,0,0,0,2.71-2.83c4.41-.09,5.31-1.56,5.31-1.56a2.71,2.71,0,0,0,1.7-.3c.83-.44,2.13-2.81,2.45-3.54s1.78-.82,2.55-1.56.41-1.48,1.07-1.62.11-.54,0-1.17.47-.43,1.14-1,.13-1.12.21-1.33a17.52,17.52,0,0,1,1-1.61c.52-.88-.55-1.79-.55-1.79l13.8-15.83ZM78.12,64.08c-.42.52.07.57.43.44s.35-.19.5-.19.54-.19.54-.37-.56-.71-.56-.71a4,4,0,0,0-.91.83Zm-.4-1.55c.07.27.77-.29.77-.29l-.28-.65C77.53,62,77.63,62.32,77.72,62.53Zm0-2.28s-.52-1.88-1-2.15-.53.17-.25.61a10.67,10.67,0,0,1,.61,2.09A.46.46,0,0,0,77.67,60.25Zm-11.8,8c0,1,1.12.82,1.3.81s.44-.49.44-.49l-.92-1.21c-.39,0-.91-.1-.82.89Zm.13-2s-1.46-2.16-1.93-3a9.06,9.06,0,0,0,1,3.25s.16.48.92-.29ZM92.68,132s-1.49.66-1.51,1.17a28.4,28.4,0,0,0-.62,3c.16.38.38.71,0,1.05s-.1.49,0,1.08a1.53,1.53,0,0,1-.16,1.18c-.22.48,1,9,2.67,11.8,0,0,.75,1.31.7-.8s.39-1.39.22-2.2-.47-.8-.39-1.25,0-4.29-.15-5.58-.24-1.46-.22-1.95a8.65,8.65,0,0,1-.27-2.78c.2-1.39-.39-2.25-.19-2.76s.63-.4.2-.88-.8-.81-.33-1.13Z"/><path id="Path_329" data-name="Path 329" class="cls-2" d="M58.65,67.75a1.57,1.57,0,0,1,2.19-.23,1.6,1.6,0,0,1,.22,2.19c-.05.06-21,25.78-10.08,34,5.25,4,14.68,2.77,25-1.12,13-4.91,27.26-14,37.06-23A89.49,89.49,0,0,0,128.89,61.3c2.93-4.71,4.86-9.29,5.34-13.44a12.56,12.56,0,0,0-3-10.39,15.55,15.55,0,0,0-3.3-2.69,1.56,1.56,0,0,1,1.63-2.65,18,18,0,0,1,3.94,3.28,15.55,15.55,0,0,1,3.8,12.8c-.56,4.63-2.64,9.67-5.8,14.75a95.6,95.6,0,0,1-16.37,19c-10.06,9.12-24.71,18.54-38.06,23.55-11.28,4.27-21.74,5.4-28,.74C35.52,96,58.56,67.85,58.65,67.75Z"/><path id="Path_330" data-name="Path 330" class="cls-1" d="M58.41,68a1.54,1.54,0,0,1,2.15-.23h0a1.56,1.56,0,0,1,.26,2.18c-.06.06-20.29,24.89-9.67,32.25,5,3.47,14,2.15,24-1.7a121.31,121.31,0,0,0,35-21.7c7.39-6.72,13.94-14.27,17.7-21.35A25.06,25.06,0,0,0,131,47.33a10.41,10.41,0,0,0-2.6-7.69,14,14,0,0,0-3.87-2.92A1.56,1.56,0,0,1,126,34a17.56,17.56,0,0,1,4.7,3.6,13.25,13.25,0,0,1,3.4,9.92,28.35,28.35,0,0,1-3.59,11.4c-3.92,7.38-10.72,15.25-18.37,22.17a124.21,124.21,0,0,1-35.9,22.3c-10.83,4.2-20.9,5.48-26.87,1.37-13.39-9.28,9-36.68,9-36.77Z"/><path id="Path_331" data-name="Path 331" class="cls-3" d="M58.65,67.76a1.56,1.56,0,0,1,2.19-.23,1.59,1.59,0,0,1,.22,2.18c-.05.06-19.61,24.07-9.58,31,4.73,3.29,13.32,2,22.79-1.61a116.68,116.68,0,0,0,33.26-20.65C115,71.73,121.56,64,125,56.86a21.65,21.65,0,0,0,2.5-8.86,9.12,9.12,0,0,0-2.34-6.64,12.62,12.62,0,0,0-3.87-2.8,1.55,1.55,0,0,1,1.37-2.79h0a15.7,15.7,0,0,1,4.82,3.5,12.1,12.1,0,0,1,3.1,8.82,24.73,24.73,0,0,1-2.83,10.15c-3.65,7.46-10.5,15.55-18.21,22.5A117.8,117.8,0,0,1,75.38,102c-10.36,4-20,5.21-25.67,1.29-12.81-8.88,8.85-35.48,8.94-35.54Z"/><path id="Path_332" data-name="Path 332" class="cls-1" d="M115.7,43.34l3.72,1.36,12.8-14.51-5.89.85-5.49,4.56Z"/></g></g></g></svg>